<?xml version="1.0" encoding="utf-8"?>
<!-- Generator: Adobe Illustrator 21.0.0, SVG Export Plug-In . SVG Version: 6.00 Build 0)  -->
<svg version="1.1"
	 id="svg3039" inkscape:version="0.48.2 r9819" sodipodi:docname="v-4.svg" xmlns:cc="http://creativecommons.org/ns#" xmlns:dc="http://purl.org/dc/elements/1.1/" xmlns:inkscape="http://www.inkscape.org/namespaces/inkscape" xmlns:rdf="http://www.w3.org/1999/02/22-rdf-syntax-ns#" xmlns:sodipodi="http://sodipodi.sourceforge.net/DTD/sodipodi-0.dtd" xmlns:svg="http://www.w3.org/2000/svg"
	 xmlns="http://www.w3.org/2000/svg" xmlns:xlink="http://www.w3.org/1999/xlink" x="0px" y="0px" viewBox="0 0 100 107"
	 style="enable-background:new 0 0 100 107;" xml:space="preserve">
<style type="text/css">
	.st0{fill:none;stroke:#000000;stroke-width:2;}
	.st1{fill:#FF0000;stroke:#000000;stroke-width:1.4;stroke-linecap:round;}
	.st2{fill:none;stroke:#000000;stroke-width:1.4007;stroke-linecap:round;}
	.st3{fill:none;stroke:#000000;stroke-width:1.5;stroke-linecap:round;}
	.st4{fill:none;stroke:#000000;}
	.st5{fill:none;stroke:#000000;stroke-width:1.5;stroke-linecap:round;stroke-linejoin:round;}
	.st6{fill:none;stroke:#000000;stroke-width:1.5161;}
	.st7{fill:#FF0000;stroke:#000000;stroke-width:2;stroke-linecap:round;}
	.st8{fill:none;stroke:#000000;stroke-width:2;stroke-linecap:round;}
	.st9{fill:none;stroke:#000000;stroke-linecap:round;}
	.st10{fill:#FF0000;stroke:#000000;stroke-width:1.5;stroke-linecap:round;}
	.st11{fill:none;stroke:#000000;stroke-width:1.3;}
	.st12{fill:none;stroke:#000000;stroke-width:1.1507;stroke-linecap:round;stroke-linejoin:round;}
	.st13{fill:none;stroke:#000000;stroke-linejoin:round;}
	.st14{fill:none;stroke:#000000;stroke-linecap:round;stroke-linejoin:round;}
	.st15{fill:none;stroke:#000000;stroke-width:0.8;stroke-linecap:round;stroke-linejoin:round;}
	.st16{fill:none;stroke:#000000;stroke-width:1.7261;stroke-linecap:round;stroke-linejoin:round;}
	.st17{fill:none;stroke:#000000;stroke-width:0.9823;stroke-linecap:round;}
	.st18{fill:none;stroke:#000000;stroke-width:1.6;stroke-linecap:round;}
	.st19{fill:none;stroke:#000000;stroke-width:0.9103;stroke-linecap:round;stroke-linejoin:round;}
	.st20{fill:none;stroke:#000000;stroke-width:1.2;stroke-linecap:round;}
	.st21{fill:none;stroke:#000000;stroke-width:1.3;stroke-linecap:round;}
	.st22{fill:none;stroke:#000000;stroke-width:1.506;stroke-linecap:round;stroke-miterlimit:5.5;}
	.st23{fill:none;stroke:#000000;stroke-width:1.4;}
	.st24{fill:none;stroke:#000000;stroke-width:1.4;stroke-linecap:round;}
	.st25{fill:none;stroke:#000000;stroke-width:1.5;}
	.st26{fill:none;stroke:#000000;stroke-width:1.3;stroke-linejoin:round;}
	.st27{fill:none;stroke:#000000;stroke-width:1.7;stroke-linecap:round;}
</style>
<path id="path3827_14_" inkscape:connector-curvature="0" sodipodi:nodetypes="ccccccccccccccccccccccccccccc" class="st0" d="
	M37,27v13H15v22h10v-7v34H14v11h23V89h26v11h23V89H75V55v7h10V40H63V16H37V27h-6V10h38v17h-6"/>
<path id="path3082_11_" inkscape:connector-curvature="0" sodipodi:nodetypes="cc" class="st1" d="M41.7,22l5-2"/>
<path id="path3084_11_" inkscape:connector-curvature="0" sodipodi:nodetypes="cc" class="st2" d="M52.7,20l5.1,2"/>
<path id="path4082_14_" inkscape:connector-curvature="0" sodipodi:nodetypes="cc" class="st3" d="M52.3,31.2c-1.4,1.9-3.1,2-4.8,0"
	/>
<path id="path4084_9_" sodipodi:cx="44.776852" sodipodi:cy="25.595287" sodipodi:rx="2.7541881" sodipodi:ry="1.5048656" sodipodi:type="arc" class="st4" d="
	M47.3,26c0,0.8-1.2,1.5-2.8,1.5c-1.5,0-2.8-0.7-2.8-1.5s1.2-1.5,2.8-1.5S47.3,25.2,47.3,26z"/>
<path id="path4130_9_" sodipodi:cx="44.776852" sodipodi:cy="25.595287" sodipodi:rx="2.7541881" sodipodi:ry="1.5048656" sodipodi:type="arc" class="st4" d="
	M57.5,26c0,0.8-1.2,1.5-2.8,1.5c-1.5,0-2.8-0.7-2.8-1.5s1.2-1.5,2.8-1.5S57.5,25.2,57.5,26z"/>
<path id="path4132_9_" sodipodi:cx="45.344723" sodipodi:cy="25.907619" sodipodi:rx="0.65305489" sodipodi:ry="1.2493224" sodipodi:type="arc" class="st4" d="
	M45.2,26c0,0.8-0.3,1.4-0.7,1.4s-0.7-0.6-0.7-1.4s0.3-1.4,0.7-1.4S45.2,25.2,45.2,26z"/>
<path id="path4134_9_" sodipodi:cx="45.344723" sodipodi:cy="25.907619" sodipodi:rx="0.65305489" sodipodi:ry="1.2493224" sodipodi:type="arc" class="st4" d="
	M55.4,26c0,0.8-0.3,1.4-0.7,1.4S54,26.8,54,26s0.3-1.4,0.7-1.4C55.1,24.6,55.4,25.2,55.4,26z"/>
<path id="path4105_5_" inkscape:connector-curvature="0" sodipodi:nodetypes="cc" class="st5" d="M57,39.5c-3.5-4.8-10.3-6.1-14,0"
	/>
</svg>
