<?xml version="1.0" encoding="utf-8"?>
<!-- Generator: Adobe Illustrator 21.0.0, SVG Export Plug-In . SVG Version: 6.00 Build 0)  -->
<svg version="1.1"
	 id="svg3039" inkscape:version="0.48.2 r9819" sodipodi:docname="v-4.svg" xmlns:cc="http://creativecommons.org/ns#" xmlns:dc="http://purl.org/dc/elements/1.1/" xmlns:inkscape="http://www.inkscape.org/namespaces/inkscape" xmlns:rdf="http://www.w3.org/1999/02/22-rdf-syntax-ns#" xmlns:sodipodi="http://sodipodi.sourceforge.net/DTD/sodipodi-0.dtd" xmlns:svg="http://www.w3.org/2000/svg"
	 xmlns="http://www.w3.org/2000/svg" xmlns:xlink="http://www.w3.org/1999/xlink" x="0px" y="0px" viewBox="0 0 100 107"
	 style="enable-background:new 0 0 100 107;" xml:space="preserve">
<style type="text/css">
	.st0{fill:none;stroke:#000000;stroke-width:2;}
	.st1{fill:#FF0000;stroke:#000000;stroke-width:1.4;stroke-linecap:round;}
	.st2{fill:none;stroke:#000000;stroke-width:1.4007;stroke-linecap:round;}
	.st3{fill:none;stroke:#000000;stroke-width:1.5;stroke-linecap:round;}
	.st4{fill:none;stroke:#000000;}
	.st5{fill:none;stroke:#000000;stroke-width:1.5;stroke-linecap:round;stroke-linejoin:round;}
	.st6{fill:none;stroke:#000000;stroke-width:1.5161;}
	.st7{fill:#FF0000;stroke:#000000;stroke-width:2;stroke-linecap:round;}
	.st8{fill:none;stroke:#000000;stroke-width:2;stroke-linecap:round;}
	.st9{fill:none;stroke:#000000;stroke-linecap:round;}
	.st10{fill:#FF0000;stroke:#000000;stroke-width:1.5;stroke-linecap:round;}
	.st11{fill:none;stroke:#000000;stroke-width:1.3;}
	.st12{fill:none;stroke:#000000;stroke-width:1.1507;stroke-linecap:round;stroke-linejoin:round;}
	.st13{fill:none;stroke:#000000;stroke-linejoin:round;}
	.st14{fill:none;stroke:#000000;stroke-linecap:round;stroke-linejoin:round;}
	.st15{fill:none;stroke:#000000;stroke-width:0.8;stroke-linecap:round;stroke-linejoin:round;}
	.st16{fill:none;stroke:#000000;stroke-width:1.7261;stroke-linecap:round;stroke-linejoin:round;}
	.st17{fill:none;stroke:#000000;stroke-width:0.9823;stroke-linecap:round;}
	.st18{fill:none;stroke:#000000;stroke-width:1.6;stroke-linecap:round;}
	.st19{fill:none;stroke:#000000;stroke-width:0.9103;stroke-linecap:round;stroke-linejoin:round;}
	.st20{fill:none;stroke:#000000;stroke-width:1.2;stroke-linecap:round;}
	.st21{fill:none;stroke:#000000;stroke-width:1.3;stroke-linecap:round;}
	.st22{fill:none;stroke:#000000;stroke-width:1.506;stroke-linecap:round;stroke-miterlimit:5.5;}
	.st23{fill:none;stroke:#000000;stroke-width:1.4;}
	.st24{fill:none;stroke:#000000;stroke-width:1.4;stroke-linecap:round;}
	.st25{fill:none;stroke:#000000;stroke-width:1.5;}
	.st26{fill:none;stroke:#000000;stroke-width:1.3;stroke-linejoin:round;}
	.st27{fill:none;stroke:#000000;stroke-width:1.7;stroke-linecap:round;}
</style>
<path id="path3827_13_" class="st0" d="M37,27.1v13H15v22h10v-7v34H14v11h23v-11h26v11h23v-11H75v-34v7h10v-22H63v-24H37V27.1h-6
	v-17h38v17h-6"/>
<path id="path4082_13_" class="st17" d="M51.6,27.8c0.8,1.9-5.1,2-4.7,0"/>
<path id="path3235_4_" class="st18" d="M55,33.3H44"/>
<path id="path4700_3_" class="st19" d="M46.2,25.1c0,1.1-1.1,2-2.5,2s-2.5-0.9-2.5-2l0,0c0-1.1,1.1-2,2.5-2
	C45.1,23.1,46.2,24,46.2,25.1L46.2,25.1z"/>
<path id="path4702_3_" class="st15" d="M44.3,25c0,0.9-0.3,1.7-0.6,1.7s-0.6-0.8-0.6-1.7s0.3-1.7,0.6-1.7
	C44.1,23.3,44.3,24.1,44.3,25z"/>
<path id="path4877_2_" class="st19" d="M57.4,25.1c0,1.1-1.1,2-2.5,2s-2.5-0.9-2.5-2l0,0c0-1.1,1.1-2,2.5-2
	C56.3,23.1,57.4,24,57.4,25.1L57.4,25.1z"/>
<path id="path4879_2_" class="st15" d="M55.5,25c0,0.9-0.3,1.7-0.6,1.7s-0.6-0.8-0.6-1.7s0.3-1.7,0.6-1.7
	C55.3,23.3,55.5,24.1,55.5,25z"/>
<path id="path4881_2_" class="st21" d="M46,20.7c-1.4-0.6-4.3-0.6-5.5,0"/>
<path id="path4883_2_" class="st21" d="M58,20.7c-1.4-0.6-4.3-0.6-5.5,0"/>
<path id="path5542" class="st4" d="M77.8,49.4c0.1,2.4,1.2-1.7,1.8,1.8c0.2,0.9,0.9,2.8,1,3.6c0.4-3.6,0.9-0.8,1.3-1.2
	c0.5-0.8-0.1-2.5-0.1-3.3c0-0.5-0.6-1.9-1.1-0.5"/>
<path id="path5559" class="st14" d="M47,61l5.1,6.5l-4,6.2l5-4.4l1,2.1l3.7,0.7L56,69.8l-0.2-1.7l3-4.9L54,66.4L47,61"/>
<path id="path6071" class="st26" d="M55.7,58.7L18,30.9l15,30.2l-17.2,8l22.9-3l4,1.2L22.4,80.6l22.5-3.5l8.5,24l1.7-23.3l6.9,7.6
	l-3.4-9.7l21.6,8.8l-5.1-7l-10.3-9.4l6-1.7L63.7,63L85,32.6l-24.2,25L52,48.2L55.7,58.7"/>
<path id="path6075" class="st9" d="M19.8,59.1c2.5-1.1-0.2-3.6,3.2-5.2"/>
<path id="path6082" class="st9" d="M20,52.1c0.1,1.1-0.6,1.5-0.8,2.5c-0.3,0.6-1.1,0.8-1.4,1.3"/>
<path id="path6091" class="st20" d="M21,85.1c-0.2-0.8-0.7-0.5-1-1.3c-0.4-3.8-0.9-6.5,0.9-7"/>
<path id="path6097" class="st21" d="M17,78.4c-1.1,0.4-1.2,2-0.1,2.6"/>
<path id="path6112" class="st9" d="M45.8,50c0.9,0.1,1.4-0.1,2-0.6"/>
<path id="path6121" class="st9" d="M6.9,99.2c0.2,1.4,0.3,2.6,1.2,3.2c0.7,0.4-1.1,1.7,1.2,2.6"/>
<path id="path6137" class="st24" d="M11.1,97.1c0,0.4-1.4,0.6-1.3,1.7c0,0.6,0.9,1.2,1.2,2c0.3,0.7-0.1,1.5-0.1,1.7
	c0.4,2.1,1.9-0.9,2.3,2.7"/>
<path id="path6169" class="st20" d="M90.7,105.1c0.3-1.2,1.7-1.2,2.1-1.3c1.2-1.8,0.2-1.3,0.1-3"/>
<path id="path6211" class="st20" d="M91.9,97.3c-2.2,0.5,0,2.9-1.3,3.4s-0.5,2.2-1.7,2.7c-1.3,0.5-1.3-0.6-3.4,1.6"/>
<path id="path6232" class="st20" d="M71.1,3.2c0.8,0.2,1.5-0.3,2.1-0.7c0.6-0.3,1.4,0,1.8,0.6c0.6,0.8,1,1.9,1,3
	c0.3,0.7,1.3,0.7,1.8,1.3c1.1,1,1.5,2.6,1.4,4"/>
<path id="path6253" class="st24" d="M68.8,5.2C70,5,71.5,5.3,72.3,6.3c1,1.3,1,1.5,1.6,3c0.2,0.5,0,2.7,0.5,3
	c0.9,0.6,1.3,0.4,0.4,1.8"/>
<path id="path6382" class="st24" d="M18.1,13.8c1.5-6.9,7.2-11.4,13.4-11.6"/>
<path id="path6384" class="st27" d="M22.6,14C23.5,7.7,34.3,3.6,36,6.1"/>
<path id="path6386" class="st9" d="M64.4,83.3c2.1,0.1,1.2-0.9,3.8-1"/>
<path id="path6397" class="st9" d="M69.1,83.7c0,2.3-1,0.2-2.6,1.5"/>
<path id="path6424" class="st9" d="M44,84.2c-2.2,0.3,0.2-1.7-3-1.2"/>
<path id="path6484" class="st9" d="M39.8,84c-0.3,0.8,0.5,1.6,1.3,1"/>
<path id="path6486" class="st9" d="M60,90.3c-0.6-0.8-0.9,0.7-1.1,0.7c-0.6,0.5-0.8-0.1-1.3,0.4"/>
<path id="path6496" class="st9" d="M57.8,93.9l0.8-0.8"/>
</svg>
