<?xml version="1.0" encoding="utf-8"?>
<!-- Generator: Adobe Illustrator 21.0.0, SVG Export Plug-In . SVG Version: 6.00 Build 0)  -->
<svg version="1.1"
	 id="svg3039" inkscape:version="0.48.2 r9819" sodipodi:docname="v-4.svg" xmlns:cc="http://creativecommons.org/ns#" xmlns:dc="http://purl.org/dc/elements/1.1/" xmlns:inkscape="http://www.inkscape.org/namespaces/inkscape" xmlns:rdf="http://www.w3.org/1999/02/22-rdf-syntax-ns#" xmlns:sodipodi="http://sodipodi.sourceforge.net/DTD/sodipodi-0.dtd" xmlns:svg="http://www.w3.org/2000/svg"
	 xmlns="http://www.w3.org/2000/svg" xmlns:xlink="http://www.w3.org/1999/xlink" x="0px" y="0px" viewBox="0 0 100 107"
	 style="enable-background:new 0 0 100 107;" xml:space="preserve">
<style type="text/css">
	.st0{fill:none;stroke:#000000;stroke-width:2;}
	.st1{fill:#FF0000;stroke:#000000;stroke-width:1.4;stroke-linecap:round;}
	.st2{fill:none;stroke:#000000;stroke-width:1.4007;stroke-linecap:round;}
	.st3{fill:none;stroke:#000000;stroke-width:1.5;stroke-linecap:round;}
	.st4{fill:none;stroke:#000000;}
	.st5{fill:none;stroke:#000000;stroke-width:1.5;stroke-linecap:round;stroke-linejoin:round;}
	.st6{fill:none;stroke:#000000;stroke-width:1.5161;}
	.st7{fill:#FF0000;stroke:#000000;stroke-width:2;stroke-linecap:round;}
	.st8{fill:none;stroke:#000000;stroke-width:2;stroke-linecap:round;}
	.st9{fill:none;stroke:#000000;stroke-linecap:round;}
	.st10{fill:#FF0000;stroke:#000000;stroke-width:1.5;stroke-linecap:round;}
	.st11{fill:none;stroke:#000000;stroke-width:1.3;}
	.st12{fill:none;stroke:#000000;stroke-width:1.1507;stroke-linecap:round;stroke-linejoin:round;}
	.st13{fill:none;stroke:#000000;stroke-linejoin:round;}
	.st14{fill:none;stroke:#000000;stroke-linecap:round;stroke-linejoin:round;}
	.st15{fill:none;stroke:#000000;stroke-width:0.8;stroke-linecap:round;stroke-linejoin:round;}
	.st16{fill:none;stroke:#000000;stroke-width:1.7261;stroke-linecap:round;stroke-linejoin:round;}
	.st17{fill:none;stroke:#000000;stroke-width:0.9823;stroke-linecap:round;}
	.st18{fill:none;stroke:#000000;stroke-width:1.6;stroke-linecap:round;}
	.st19{fill:none;stroke:#000000;stroke-width:0.9103;stroke-linecap:round;stroke-linejoin:round;}
	.st20{fill:none;stroke:#000000;stroke-width:1.2;stroke-linecap:round;}
	.st21{fill:none;stroke:#000000;stroke-width:1.3;stroke-linecap:round;}
	.st22{fill:none;stroke:#000000;stroke-width:1.506;stroke-linecap:round;stroke-miterlimit:5.5;}
	.st23{fill:none;stroke:#000000;stroke-width:1.4;}
	.st24{fill:none;stroke:#000000;stroke-width:1.4;stroke-linecap:round;}
	.st25{fill:none;stroke:#000000;stroke-width:1.5;}
	.st26{fill:none;stroke:#000000;stroke-width:1.3;stroke-linejoin:round;}
	.st27{fill:none;stroke:#000000;stroke-width:1.7;stroke-linecap:round;}
</style>
<path id="path3827_15_" inkscape:connector-curvature="0" sodipodi:nodetypes="ccccccccccccccccccccccccccccc" class="st0" d="
	M37.3,27v13h-22v22h10v-7v34h-11v11h23V89h26v11h23V89h-11V55v7h10V40h-22V16h-26V27h-6V10h38v17h-6"/>
<path id="path4082_15_" inkscape:connector-curvature="0" sodipodi:nodetypes="cc" class="st17" d="M51.9,27.7c0.8,1.9-5.1,2-4.7,0"
	/>
<path id="path3235_5_" inkscape:connector-curvature="0" sodipodi:nodetypes="cc" class="st18" d="M55.3,33.2h-11"/>
<path id="path4099_2_" inkscape:connector-curvature="0" inkscape:original-d="m 49.983116,58.909975 -0.374536,1.201916 -1.789253,0.0579 -1.258023,1.346655 c 0.457744,1.24481 2.547619,1.015649 2.986046,2.625085 L 52.832105,63.92958 52.686592,62.345525 53.200745,60.5988 51.944349,58.903223 c -0.05834,-2.575437 -0.505938,0.188294 -1.961233,0.0068 z" inkscape:path-effect="#path-effect4101" sodipodi:nodetypes="ccccccccccc" class="st13" d="
	M50.1,60.4l-0.3,0.8l-1.2,0.1l-0.9,0.9l2,1.8l2.2-0.1L52,62.7l0.3-1.1l-0.9-1.1H50.1L50.1,60.4"/>
<path id="path4700_4_" sodipodi:cx="43.830647" sodipodi:cy="25.006989" sodipodi:rx="2.6674252" sodipodi:ry="1.4852709" sodipodi:type="arc" class="st19" d="
	M46.5,25c0,0.9-1.1,1.7-2.5,1.7s-2.5-0.8-2.5-1.7l0,0c0-0.9,1.1-1.7,2.5-1.7C45.4,23.3,46.5,24.1,46.5,25L46.5,25z"/>
<path id="path4702_4_" sodipodi:cx="44.133762" sodipodi:cy="25.158546" sodipodi:rx="0.606233" sodipodi:ry="1.5762057" sodipodi:type="arc" class="st15" d="
	M44.6,24.9c0,0.8-0.3,1.4-0.6,1.4s-0.6-0.7-0.6-1.4s0.3-1.4,0.6-1.4C44.4,23.5,44.6,24.2,44.6,24.9z"/>
<path id="path4844_1_" inkscape:connector-curvature="0" sodipodi:nodetypes="ccc" class="st20" d="M58.1,56.1
	c-2.6,0.7-2.2-3.6-4-2.8c-3.1,1-1.8-0.1-3.8,0.1"/>
<path id="path4850_2_" inkscape:connector-curvature="0" sodipodi:nodetypes="cc" class="st9" d="M44.3,70.3
	c2.1,2.8,1.1,0.4,3.2,2.4"/>
<path id="path4873_1_" inkscape:connector-curvature="0" inkscape:original-d="m 44.382395,51.165785 c -3.008082,-1.688747 3.377495,4.802377 4.696829,4.010776 1.319334,-0.7916 1.477654,-2.322028 3.219175,-2.216481 1.741521,0.105547 2.374801,3.905229 4.432962,4.063549 2.058161,0.15832 0.31664,0.105547 3.535815,1.899841 -2.583076,3.113132 -1.583201,4.749602 -0.738827,5.066242 0.844374,0.316641 1.372108,0.211094 -1.847067,0.15832 -3.219175,-0.05277 0.263866,3.166402 1.213787,3.535815 0.94992,0.369414 1.583201,0.897147 -0.527734,3.483042 -2.110934,2.585895 -6.702216,-13.19334 -9.182564,-3.483042 -1.240174,4.855149 -1.283545,1.959132 -1.266561,2.948712 0.01402,0.81715 -2.024346,-2.842353 -3.917798,-6.089354 -1.893452,-3.247002 -7.441667,-5.553768 -7.270154,-3.192161 0.199438,2.746101 -6.016163,-0.369413 5.119016,-3.060855 11.135179,-2.691441 2.533121,-7.124404 2.533121,-7.124404 z" inkscape:path-effect="#path-effect4875" sodipodi:nodetypes="cssscsssssssssc" class="st4" d="
	M46.3,55.2c0.2,0,0.3,0.1,0.5,0.1c0.2,0.1,0.3,0.2,0.4,0.3c0.3,0.3,0.4,0.6,0.6,0.9s0.3,0.7,0.6,0.9c0.1,0.1,0.3,0.3,0.5,0.3
	c0.1,0.1,0.3,0.1,0.5,0.1c0.2,0,0.4-0.1,0.6-0.2c0.2-0.1,0.3-0.3,0.5-0.5c0.1-0.2,0.3-0.3,0.5-0.5s0.3-0.3,0.6-0.3
	c0.3-0.1,0.7-0.1,1.1,0.1c0.3,0.2,0.6,0.4,0.8,0.7c0.4,0.6,0.7,1.3,1.1,1.9c0.5,0.7,1.5,1.2,2.4,1.3c0.4,0.1,0.7,0.4,0.9,0.7
	c0.2,0.3,0.3,0.8,0.3,1.2c-0.1,0.4-0.3,0.8-0.6,1.1c-0.3,0.3-0.7,0.3-1.1,0.3c-0.2,0-0.4-0.1-0.6-0.1c-0.2,0-0.4,0-0.6,0.1
	c-0.1,0.1-0.2,0.1-0.2,0.3c-0.1,0.1-0.1,0.2-0.1,0.3c0,0.3,0.1,0.5,0.2,0.7c0.3,0.4,0.7,0.7,0.9,1.1c0.3,0.3,0.4,0.8,0.3,1.3
	c0,0.2-0.1,0.5-0.2,0.6c-0.1,0.1-0.3,0.3-0.5,0.5c-0.3,0.1-0.6,0.2-0.9,0.1c-0.3-0.1-0.6-0.2-0.9-0.3c-0.5-0.3-0.9-0.9-1.3-1.4
	c-0.4-0.5-0.9-0.9-1.4-1.2c-0.3-0.1-0.6-0.1-0.9-0.1c-0.3,0.1-0.6,0.2-0.8,0.5c-0.1,0.1-0.2,0.3-0.2,0.5c-0.1,0.2-0.1,0.3-0.1,0.5
	c-0.1,0.2-0.1,0.3-0.1,0.5c-0.1,0.1-0.2,0.3-0.3,0.4c-0.2,0.1-0.5,0.2-0.7,0.2c-0.2,0-0.5-0.1-0.7-0.3s-0.3-0.3-0.4-0.6
	C47,67.3,47,67,46.9,66.8c-0.1-0.5-0.1-0.9-0.1-1.4c-0.1-0.5-0.2-0.9-0.5-1.3c-0.3-0.3-0.9-0.5-1.4-0.5c-0.5-0.1-1,0-1.5,0
	s-1-0.1-1.4-0.3c-0.2-0.1-0.4-0.3-0.5-0.5c-0.1-0.2-0.2-0.5-0.1-0.7c0-0.2,0.1-0.3,0.2-0.5c0.1-0.1,0.2-0.3,0.4-0.4
	c0.3-0.2,0.6-0.3,0.9-0.4c0.3-0.1,0.7-0.1,1-0.3s0.7-0.3,0.9-0.5c0.3-0.3,0.4-0.8,0.5-1.3s-0.1-0.9-0.1-1.4s0-0.9,0.2-1.4
	c0.1-0.2,0.3-0.4,0.5-0.5C45.9,55.2,46.1,55.2,46.3,55.2"/>
<path id="path4877_3_" sodipodi:cx="43.830647" sodipodi:cy="25.006989" sodipodi:rx="2.6674252" sodipodi:ry="1.4852709" sodipodi:type="arc" class="st19" d="
	M57.7,25c0,0.9-1.1,1.7-2.5,1.7s-2.5-0.8-2.5-1.7l0,0c0-0.9,1.1-1.7,2.5-1.7C56.6,23.3,57.7,24.1,57.7,25L57.7,25z"/>
<path id="path4879_3_" sodipodi:cx="44.133762" sodipodi:cy="25.158546" sodipodi:rx="0.606233" sodipodi:ry="1.5762057" sodipodi:type="arc" class="st15" d="
	M55.8,24.9c0,0.8-0.3,1.4-0.6,1.4s-0.6-0.7-0.6-1.4s0.3-1.4,0.6-1.4C55.6,23.5,55.8,24.2,55.8,24.9z"/>
<path id="path4881_3_" inkscape:connector-curvature="0" sodipodi:nodetypes="cc" class="st21" d="M46.3,20.6
	c-1.4-0.6-4.3-0.6-5.5,0"/>
<path id="path4883_3_" inkscape:connector-curvature="0" sodipodi:nodetypes="cc" class="st21" d="M58.3,20.6
	c-1.4-0.6-4.3-0.6-5.5,0"/>
</svg>
