<?xml version="1.0" encoding="utf-8"?>
<!-- Generator: Adobe Illustrator 21.0.0, SVG Export Plug-In . SVG Version: 6.00 Build 0)  -->
<svg version="1.1"
	 id="svg3039" inkscape:version="0.48.2 r9819" sodipodi:docname="v-4.svg" xmlns:cc="http://creativecommons.org/ns#" xmlns:dc="http://purl.org/dc/elements/1.1/" xmlns:inkscape="http://www.inkscape.org/namespaces/inkscape" xmlns:rdf="http://www.w3.org/1999/02/22-rdf-syntax-ns#" xmlns:sodipodi="http://sodipodi.sourceforge.net/DTD/sodipodi-0.dtd" xmlns:svg="http://www.w3.org/2000/svg"
	 xmlns="http://www.w3.org/2000/svg" xmlns:xlink="http://www.w3.org/1999/xlink" x="0px" y="0px" viewBox="0 0 100 107"
	 style="enable-background:new 0 0 100 107;" xml:space="preserve">
<style type="text/css">
	.st0{fill:none;stroke:#000000;stroke-width:2;}
	.st1{fill:#FF0000;stroke:#000000;stroke-width:1.4;stroke-linecap:round;}
	.st2{fill:none;stroke:#000000;stroke-width:1.4007;stroke-linecap:round;}
	.st3{fill:none;stroke:#000000;stroke-width:1.5;stroke-linecap:round;}
	.st4{fill:none;stroke:#000000;}
	.st5{fill:none;stroke:#000000;stroke-width:1.5;stroke-linecap:round;stroke-linejoin:round;}
	.st6{fill:none;stroke:#000000;stroke-width:1.5161;}
	.st7{fill:#FF0000;stroke:#000000;stroke-width:2;stroke-linecap:round;}
	.st8{fill:none;stroke:#000000;stroke-width:2;stroke-linecap:round;}
	.st9{fill:none;stroke:#000000;stroke-linecap:round;}
	.st10{fill:#FF0000;stroke:#000000;stroke-width:1.5;stroke-linecap:round;}
	.st11{fill:none;stroke:#000000;stroke-width:1.3;}
	.st12{fill:none;stroke:#000000;stroke-width:1.1507;stroke-linecap:round;stroke-linejoin:round;}
	.st13{fill:none;stroke:#000000;stroke-linejoin:round;}
	.st14{fill:none;stroke:#000000;stroke-linecap:round;stroke-linejoin:round;}
	.st15{fill:none;stroke:#000000;stroke-width:0.8;stroke-linecap:round;stroke-linejoin:round;}
	.st16{fill:none;stroke:#000000;stroke-width:1.7261;stroke-linecap:round;stroke-linejoin:round;}
	.st17{fill:none;stroke:#000000;stroke-width:0.9823;stroke-linecap:round;}
	.st18{fill:none;stroke:#000000;stroke-width:1.6;stroke-linecap:round;}
	.st19{fill:none;stroke:#000000;stroke-width:0.9103;stroke-linecap:round;stroke-linejoin:round;}
	.st20{fill:none;stroke:#000000;stroke-width:1.2;stroke-linecap:round;}
	.st21{fill:none;stroke:#000000;stroke-width:1.3;stroke-linecap:round;}
	.st22{fill:none;stroke:#000000;stroke-width:1.506;stroke-linecap:round;stroke-miterlimit:5.5;}
	.st23{fill:none;stroke:#000000;stroke-width:1.4;}
	.st24{fill:none;stroke:#000000;stroke-width:1.4;stroke-linecap:round;}
	.st25{fill:none;stroke:#000000;stroke-width:1.5;}
	.st26{fill:none;stroke:#000000;stroke-width:1.3;stroke-linejoin:round;}
	.st27{fill:none;stroke:#000000;stroke-width:1.7;stroke-linecap:round;}
</style>
<path id="path3827_9_" inkscape:connector-curvature="0" sodipodi:nodetypes="ccccccccccccccccccccccccccccc" class="st0" d="
	M37.2,27v13h-22v22h10v-7v34h-11v11h23V89h26v11h23V89h-11V55v7h10V40h-22V16h-26V27h-6V10h38v17h-6"/>
<path id="path3082_9_" inkscape:connector-curvature="0" sodipodi:nodetypes="cc" class="st10" d="M42,21.5h5"/>
<path id="path3084_9_" inkscape:connector-curvature="0" sodipodi:nodetypes="cc" class="st3" d="M53.2,21.5h5"/>
<path id="path4082_9_" inkscape:connector-curvature="0" sodipodi:nodetypes="cc" class="st9" d="M51.7,28.2c0.7,2.3-4.4,2.4-4.1,0"
	/>
<path id="path3235" inkscape:connector-curvature="0" sodipodi:nodetypes="cc" class="st11" d="M55.2,34h-11"/>
<path id="path4031" sodipodi:cx="51.655529" sodipodi:cy="65.996986" sodipodi:rx="1.4233968" sodipodi:ry="1.0560685" sodipodi:type="arc" class="st12" d="
	M48.9,66c0,0.4-0.3,0.7-0.7,0.7s-0.7-0.3-0.7-0.7s0.3-0.7,0.7-0.7S48.9,65.6,48.9,66z"/>
<path id="path4099" inkscape:connector-curvature="0" inkscape:original-d="m 52.489078,57.631462 -0.880152,1.280221 -1.520263,-0.160028 -0.480083,1.360236 -2.000346,0.480083 0.800138,2.560442 2.400415,0.08001 0.480084,1.120194 2.400415,-0.160028 1.200207,-2.960512 -1.520263,-0.64011 0,-1.760305 z" inkscape:path-effect="#path-effect4101" class="st13" d="
	M52.7,57.6l-0.9,1.3l-1.5-0.2l-0.5,1.4l-2,0.5l0.8,2.6l2.4,0.1l0.5,1.1l2.4-0.2l1.2-3l-1.5-0.6v-1.8L52.7,57.6"/>
<path id="path4103" inkscape:connector-curvature="0" inkscape:original-d="m 53.209203,55.551102 1.68029,1.520263 1.120194,-0.160028 z" inkscape:path-effect="#path-effect4105" class="st13" d="
	M53.4,55.6l1.7,1.5l1.1-0.2L53.4,55.6"/>
<path id="path4700" sodipodi:cx="43.830647" sodipodi:cy="25.006989" sodipodi:rx="2.6674252" sodipodi:ry="1.4852709" sodipodi:type="arc" class="st14" d="
	M47,24.9c0,0.6-1.1,1.2-2.5,1.2S42,25.5,42,24.9l0,0c0-0.6,1.1-1.2,2.5-1.2C45.8,23.7,47,24.3,47,24.9L47,24.9z"/>
<path id="path4702" sodipodi:cx="44.133762" sodipodi:cy="25.158546" sodipodi:rx="0.606233" sodipodi:ry="1.5762057" sodipodi:type="arc" class="st15" d="
	M45,24.9c0,0.6-0.3,1.2-0.6,1.2s-0.6-0.6-0.6-1.2c0-0.6,0.3-1.2,0.6-1.2C44.8,23.7,45,24.3,45,24.9z"/>
<path id="path4704" sodipodi:cx="43.830647" sodipodi:cy="25.006989" sodipodi:rx="2.6674252" sodipodi:ry="1.4852709" sodipodi:type="arc" class="st14" d="
	M58.2,24.9c0,0.6-1.1,1.2-2.5,1.2s-2.5-0.5-2.5-1.2l0,0c0-0.6,1.1-1.2,2.5-1.2S58.2,24.3,58.2,24.9L58.2,24.9z"/>
<path id="path4706" sodipodi:cx="44.133762" sodipodi:cy="25.158546" sodipodi:rx="0.606233" sodipodi:ry="1.5762057" sodipodi:type="arc" class="st15" d="
	M56.3,24.9c0,0.6-0.3,1.2-0.6,1.2s-0.6-0.6-0.6-1.2c0-0.6,0.3-1.2,0.6-1.2C56,23.7,56.3,24.3,56.3,24.9z"/>
</svg>
