<?xml version="1.0" encoding="utf-8"?>
<!-- Generator: Adobe Illustrator 21.0.0, SVG Export Plug-In . SVG Version: 6.00 Build 0)  -->
<svg version="1.1"
	 id="svg3039" inkscape:version="0.48.2 r9819" sodipodi:docname="v-4.svg" xmlns:cc="http://creativecommons.org/ns#" xmlns:dc="http://purl.org/dc/elements/1.1/" xmlns:inkscape="http://www.inkscape.org/namespaces/inkscape" xmlns:rdf="http://www.w3.org/1999/02/22-rdf-syntax-ns#" xmlns:sodipodi="http://sodipodi.sourceforge.net/DTD/sodipodi-0.dtd" xmlns:svg="http://www.w3.org/2000/svg"
	 xmlns="http://www.w3.org/2000/svg" xmlns:xlink="http://www.w3.org/1999/xlink" x="0px" y="0px" viewBox="0 0 100 107"
	 style="enable-background:new 0 0 100 107;" xml:space="preserve">
<style type="text/css">
	.st0{fill:none;stroke:#000000;stroke-width:2;}
	.st1{fill:#FF0000;stroke:#000000;stroke-width:1.4;stroke-linecap:round;}
	.st2{fill:none;stroke:#000000;stroke-width:1.4007;stroke-linecap:round;}
	.st3{fill:none;stroke:#000000;stroke-width:1.5;stroke-linecap:round;}
	.st4{fill:none;stroke:#000000;}
	.st5{fill:none;stroke:#000000;stroke-width:1.5;stroke-linecap:round;stroke-linejoin:round;}
	.st6{fill:none;stroke:#000000;stroke-width:1.5161;}
	.st7{fill:#FF0000;stroke:#000000;stroke-width:2;stroke-linecap:round;}
	.st8{fill:none;stroke:#000000;stroke-width:2;stroke-linecap:round;}
	.st9{fill:none;stroke:#000000;stroke-linecap:round;}
	.st10{fill:#FF0000;stroke:#000000;stroke-width:1.5;stroke-linecap:round;}
	.st11{fill:none;stroke:#000000;stroke-width:1.3;}
	.st12{fill:none;stroke:#000000;stroke-width:1.1507;stroke-linecap:round;stroke-linejoin:round;}
	.st13{fill:none;stroke:#000000;stroke-linejoin:round;}
	.st14{fill:none;stroke:#000000;stroke-linecap:round;stroke-linejoin:round;}
	.st15{fill:none;stroke:#000000;stroke-width:0.8;stroke-linecap:round;stroke-linejoin:round;}
	.st16{fill:none;stroke:#000000;stroke-width:1.7261;stroke-linecap:round;stroke-linejoin:round;}
	.st17{fill:none;stroke:#000000;stroke-width:0.9823;stroke-linecap:round;}
	.st18{fill:none;stroke:#000000;stroke-width:1.6;stroke-linecap:round;}
	.st19{fill:none;stroke:#000000;stroke-width:0.9103;stroke-linecap:round;stroke-linejoin:round;}
	.st20{fill:none;stroke:#000000;stroke-width:1.2;stroke-linecap:round;}
	.st21{fill:none;stroke:#000000;stroke-width:1.3;stroke-linecap:round;}
	.st22{fill:none;stroke:#000000;stroke-width:1.506;stroke-linecap:round;stroke-miterlimit:5.5;}
	.st23{fill:none;stroke:#000000;stroke-width:1.4;}
	.st24{fill:none;stroke:#000000;stroke-width:1.4;stroke-linecap:round;}
	.st25{fill:none;stroke:#000000;stroke-width:1.5;}
	.st26{fill:none;stroke:#000000;stroke-width:1.3;stroke-linejoin:round;}
	.st27{fill:none;stroke:#000000;stroke-width:1.7;stroke-linecap:round;}
</style>
<path id="path4997_1_" inkscape:connector-curvature="0" sodipodi:nodetypes="ccccccccccccccc" class="st23" d="M56.2,61
	c1.6,0.4,1.4-1.8,2.9-1.2c1,0.5-2.9,4-3.1,4.9c-0.2,1,2.4,3.5,1.7,4.2c-2.8-0.6-3.8,0.5-4.9,1.2c-2.1,0.9-0.5-1-2.8-0.9
	c-1.8,0.5-3.1,3.5-4.7,4.2c-0.5-0.1,0.1-3.9,0.1-4.4c-0.1-1.4,1.9-1.3,3.2-1.8c0.9,0,0.4-1.5,0.4-2.5c-1.9-1-3.4-1.3-3.9-1.9
	c0.1-2.9,4,0,4.1-1.1c1.3-1,0.2-3.2,0.9-3.4c0.9,0.1,1.6,2.1,2.1,3.4C53.6,63.5,54,63.6,56.2,61z"/>
<path id="path3827_18_" class="st0" d="M36.9,27.1v13h-22v22h10v-7v34h-11v11h23v-11h26v11h23v-11h-11v-34v7h10v-22h-22v-24h-26
	V27.1h-6v-17h38v17h-6"/>
<path id="path4082_18_" class="st17" d="M51.5,27.8c0.8,1.9-5.1,2-4.7,0"/>
<path id="path3235_8_" class="st18" d="M54.9,33.3h-11"/>
<path id="path4700_7_" class="st19" d="M46.1,25.1c0,1.1-1.1,2-2.5,2s-2.5-0.9-2.5-2l0,0c0-1.1,1.1-2,2.5-2
	C45,23.1,46.1,24,46.1,25.1L46.1,25.1z"/>
<path id="path4702_7_" class="st15" d="M44.2,25c0,0.9-0.3,1.7-0.6,1.7S43,25.9,43,25s0.3-1.7,0.6-1.7C44,23.3,44.2,24.1,44.2,25z"
	/>
<path id="path4877_5_" class="st19" d="M57.3,25.1c0,1.1-1.1,2-2.5,2s-2.5-0.9-2.5-2l0,0c0-1.1,1.1-2,2.5-2
	C56.2,23.1,57.3,24,57.3,25.1L57.3,25.1z"/>
<path id="path4879_5_" class="st15" d="M55.4,25c0,0.9-0.3,1.7-0.6,1.7s-0.6-0.8-0.6-1.7s0.3-1.7,0.6-1.7
	C55.2,23.3,55.4,24.1,55.4,25z"/>
<path id="path4881_5_" class="st21" d="M45.9,20.7c-1.4-0.6-4.3-0.6-5.5,0"/>
<path id="path4883_5_" class="st21" d="M57.9,20.7c-1.4-0.6-4.3-0.6-5.5,0"/>
<path id="path5542_1_" class="st4" d="M77.7,49.4c0.1,2.4,1.2-1.7,1.8,1.8c0.2,0.9,0.9,2.8,1,3.6c0.4-3.6,0.9-0.8,1.3-1.2
	c0.5-0.8-0.1-2.5-0.1-3.3c0-0.5-0.6-1.9-1.1-0.5"/>
<path id="path6071_1_" class="st26" d="M51.8,55.2L23.1,36.6l14.2,22.5c0.3,0.6-0.3,2.3-0.9,2.6l-5.5,2.8c-1.2,0.6-0.7,2.4,0.6,2.2
	l8.7-0.7c0.2,0,0.3,0,0.5,0l0.7,0.2c1,0.3,1.1,1.6,0.3,2.1l-6,6.5c-0.9,1.2,0.3,3,1.5,2.8l7.5-2.3c0.6-0.1,1.1,0.2,1.3,0.8l4.9,13.9
	c0.4,1.2,2.2,1,2.3-0.3L54,78.7c0.1-1,1.3-1.5,2-0.7l0,0c0.9,0.9,2.4,0,2-1.2L58,76.6c-0.3-1,0.6-1.9,1.6-1.5l8.1,3.3
	c1.1,0.4,1.1-1.5,0.4-3.9l-1.9-2.3l-2.3-3c-0.7-0.6-0.4-1.7,0.5-2h0c1-0.3,1.2-1.7,0.2-2.2l-1.9-0.9c-0.7-0.3-0.9-1.1-0.5-1.7
	l8.5-12.2c0.8-1.2-0.8-2.5-1.8-1.5l-11.5,7.2c-0.5,0.5-0.9-0.8-1.3-2L54.2,48c-0.9-0.9-2.4,0-2,1.2L51.8,55.2"/>
<path id="path6075_1_" class="st9" d="M19.7,59.1c2.5-1.1-0.2-3.6,3.2-5.2"/>
<path id="path6112_1_" class="st9" d="M45.7,50c0.9,0.1,1.4-0.1,2-0.6"/>
<path id="path6169_1_" class="st20" d="M90.6,105.1c0.3-1.2,1.7-1.2,2.1-1.3c1.2-1.8,0.2-1.3,0.1-3"/>
<path id="path6211_1_" class="st20" d="M91.8,97.3c-2.2,0.5,0,2.9-1.3,3.4s-0.5,2.2-1.7,2.7c-1.3,0.5-1.3-0.6-3.4,1.6"/>
<path id="path6384_1_" class="st27" d="M22.5,14c0.9-6.3,11.7-10.4,13.4-7.9"/>
<path id="path6386_1_" class="st9" d="M64.2,83.3c2.1,0.1,1.2-0.9,3.8-1"/>
<path id="path6397_1_" class="st9" d="M68.9,83.7c0,2.3-1,0.2-2.6,1.5"/>
<path id="path6424_1_" class="st9" d="M43.9,84.2c-2.2,0.3,0.2-1.7-3-1.2"/>
<path id="path6484_1_" class="st9" d="M39.7,84c-0.3,0.8,0.5,1.6,1.3,1"/>
</svg>
