<?xml version="1.0" encoding="utf-8"?>
<!-- Generator: Adobe Illustrator 21.0.0, SVG Export Plug-In . SVG Version: 6.00 Build 0)  -->
<svg version="1.1"
	 id="svg3039" inkscape:version="0.48.2 r9819" sodipodi:docname="v-4.svg" xmlns:cc="http://creativecommons.org/ns#" xmlns:dc="http://purl.org/dc/elements/1.1/" xmlns:inkscape="http://www.inkscape.org/namespaces/inkscape" xmlns:rdf="http://www.w3.org/1999/02/22-rdf-syntax-ns#" xmlns:sodipodi="http://sodipodi.sourceforge.net/DTD/sodipodi-0.dtd" xmlns:svg="http://www.w3.org/2000/svg"
	 xmlns="http://www.w3.org/2000/svg" xmlns:xlink="http://www.w3.org/1999/xlink" x="0px" y="0px" viewBox="0 0 100 107"
	 style="enable-background:new 0 0 100 107;" xml:space="preserve">
<style type="text/css">
	.st0{fill:none;stroke:#000000;stroke-width:2;}
	.st1{fill:#FF0000;stroke:#000000;stroke-width:1.4;stroke-linecap:round;}
	.st2{fill:none;stroke:#000000;stroke-width:1.4007;stroke-linecap:round;}
	.st3{fill:none;stroke:#000000;stroke-width:1.5;stroke-linecap:round;}
	.st4{fill:none;stroke:#000000;}
	.st5{fill:none;stroke:#000000;stroke-width:1.5;stroke-linecap:round;stroke-linejoin:round;}
	.st6{fill:none;stroke:#000000;stroke-width:1.5161;}
	.st7{fill:#FF0000;stroke:#000000;stroke-width:2;stroke-linecap:round;}
	.st8{fill:none;stroke:#000000;stroke-width:2;stroke-linecap:round;}
	.st9{fill:none;stroke:#000000;stroke-linecap:round;}
	.st10{fill:#FF0000;stroke:#000000;stroke-width:1.5;stroke-linecap:round;}
	.st11{fill:none;stroke:#000000;stroke-width:1.3;}
	.st12{fill:none;stroke:#000000;stroke-width:1.1507;stroke-linecap:round;stroke-linejoin:round;}
	.st13{fill:none;stroke:#000000;stroke-linejoin:round;}
	.st14{fill:none;stroke:#000000;stroke-linecap:round;stroke-linejoin:round;}
	.st15{fill:none;stroke:#000000;stroke-width:0.8;stroke-linecap:round;stroke-linejoin:round;}
	.st16{fill:none;stroke:#000000;stroke-width:1.7261;stroke-linecap:round;stroke-linejoin:round;}
	.st17{fill:none;stroke:#000000;stroke-width:0.9823;stroke-linecap:round;}
	.st18{fill:none;stroke:#000000;stroke-width:1.6;stroke-linecap:round;}
	.st19{fill:none;stroke:#000000;stroke-width:0.9103;stroke-linecap:round;stroke-linejoin:round;}
	.st20{fill:none;stroke:#000000;stroke-width:1.2;stroke-linecap:round;}
	.st21{fill:none;stroke:#000000;stroke-width:1.3;stroke-linecap:round;}
	.st22{fill:none;stroke:#000000;stroke-width:1.506;stroke-linecap:round;stroke-miterlimit:5.5;}
	.st23{fill:none;stroke:#000000;stroke-width:1.4;}
	.st24{fill:none;stroke:#000000;stroke-width:1.4;stroke-linecap:round;}
	.st25{fill:none;stroke:#000000;stroke-width:1.5;}
	.st26{fill:none;stroke:#000000;stroke-width:1.3;stroke-linejoin:round;}
	.st27{fill:none;stroke:#000000;stroke-width:1.7;stroke-linecap:round;}
</style>
<path id="path4850_3_" inkscape:connector-curvature="0" sodipodi:nodetypes="cc" class="st9" d="M43.2,69c2.1,2.8,1.1,0.4,3.2,2.4"
	/>
<path id="path4873_2_" inkscape:connector-curvature="0" inkscape:original-d="m 44.382395,51.165785 c -3.008082,-1.688747 3.377495,4.802377 4.696829,4.010776 1.319334,-0.7916 1.477654,-2.322028 3.219175,-2.216481 1.741521,0.105547 2.374801,3.905229 4.432962,4.063549 2.058161,0.15832 0.31664,0.105547 3.535815,1.899841 -2.583076,3.113132 -1.583201,4.749602 -0.738827,5.066242 0.844374,0.316641 1.372108,0.211094 -1.847067,0.15832 -3.219175,-0.05277 0.263866,3.166402 1.213787,3.535815 0.94992,0.369414 1.583201,0.897147 -0.527734,3.483042 -2.110934,2.585895 -6.702216,-13.19334 -9.182564,-3.483042 -1.240174,4.855149 -1.283545,1.959132 -1.266561,2.948712 0.01402,0.81715 -2.024346,-2.842353 -3.917798,-6.089354 -1.893452,-3.247002 -7.441667,-5.553768 -7.270154,-3.192161 0.199438,2.746101 -6.016163,-0.369413 5.119016,-3.060855 11.135179,-2.691441 2.533121,-7.124404 2.533121,-7.124404 z" inkscape:path-effect="#path-effect4875" sodipodi:nodetypes="cssscsssssssssc" class="st4" d="
	M46.8,58.4c0.1,0,0.2,0,0.4,0.1c0.1,0,0.2,0.1,0.3,0.2c0.2,0.2,0.3,0.4,0.4,0.7c0.1,0.2,0.2,0.5,0.4,0.6c0.1,0.1,0.2,0.2,0.3,0.2
	c0.1,0,0.2,0.1,0.4,0.1c0.1,0,0.3-0.1,0.4-0.1s0.2-0.2,0.3-0.3c0.1-0.1,0.2-0.2,0.3-0.3c0.1-0.1,0.2-0.2,0.4-0.2
	c0.2-0.1,0.5,0,0.8,0.1c0.2,0.1,0.4,0.3,0.6,0.5c0.3,0.4,0.5,0.9,0.8,1.3c0.4,0.5,1.1,0.9,1.7,0.9c0.3,0.1,0.5,0.3,0.7,0.5
	c0.1,0.2,0.2,0.6,0.2,0.9s-0.2,0.6-0.4,0.8c-0.2,0.2-0.5,0.2-0.8,0.2c-0.1,0-0.3,0-0.4,0c-0.1,0-0.3,0-0.4,0.1c0,0-0.1,0.1-0.1,0.2
	c0,0.1,0,0.1,0,0.2c0,0.2,0,0.3,0.1,0.5c0.2,0.3,0.5,0.5,0.7,0.8c0.2,0.2,0.3,0.6,0.2,0.9c0,0.1,0,0.3-0.1,0.4
	c-0.1,0.1-0.2,0.2-0.3,0.3c-0.2,0.1-0.4,0.1-0.6,0.1c-0.2,0-0.4-0.1-0.6-0.2c-0.4-0.2-0.6-0.6-0.9-1c-0.3-0.3-0.6-0.7-1-0.9
	c-0.2-0.1-0.4-0.1-0.7-0.1c-0.2,0-0.4,0.1-0.6,0.3C49,66.3,49,66.5,49,66.6c0,0.1,0,0.2-0.1,0.4c0,0.1,0,0.2-0.1,0.4
	c0,0.1-0.1,0.2-0.2,0.3c-0.1,0.1-0.3,0.1-0.5,0.1s-0.3-0.1-0.5-0.2c-0.1-0.1-0.2-0.2-0.3-0.4c0-0.1-0.1-0.3-0.1-0.5
	c0-0.3,0-0.7-0.1-1s-0.1-0.7-0.4-0.9s-0.6-0.4-1-0.4c-0.3,0-0.7,0-1.1,0c-0.3,0-0.7,0-1-0.2c-0.1-0.1-0.3-0.2-0.4-0.4
	c-0.1-0.1-0.1-0.3-0.1-0.5c0-0.1,0-0.2,0.1-0.3c0-0.1,0.1-0.2,0.3-0.3c0.2-0.1,0.4-0.2,0.7-0.3c0.2,0,0.5-0.1,0.7-0.2
	c0.2-0.1,0.5-0.2,0.6-0.4c0.2-0.2,0.3-0.6,0.3-0.9c0-0.3,0-0.7,0-1s0-0.7,0.1-1c0.1-0.1,0.2-0.3,0.3-0.4
	C46.4,58.5,46.6,58.4,46.8,58.4"/>
<path id="path3827_16_" inkscape:connector-curvature="0" sodipodi:nodetypes="ccccccccccccccccccccccccccccc" class="st0" d="
	M37.2,27v13h-22v22h10v-7v34h-11v11h23V89h26v11h23V89h-11V55v7h10V40h-22V16h-26V27h-6V10h38v17h-6"/>
<path id="path3082_12_" inkscape:connector-curvature="0" sodipodi:nodetypes="cc" class="st10" d="M42,21.5h5"/>
<path id="path3084_12_" inkscape:connector-curvature="0" sodipodi:nodetypes="cc" class="st3" d="M53.2,21.5h5"/>
<path id="path4082_16_" inkscape:connector-curvature="0" sodipodi:nodetypes="cc" class="st9" d="M51.7,28.2c0.7,2.3-4.4,2.4-4.1,0
	"/>
<path id="path3235_6_" inkscape:connector-curvature="0" sodipodi:nodetypes="cc" class="st11" d="M55.2,34h-11"/>
<path id="path4103_1_" inkscape:connector-curvature="0" inkscape:original-d="m 53.209203,55.551102 1.68029,1.520263 1.120194,-0.160028 z" inkscape:path-effect="#path-effect4105" class="st13" d="
	M53.4,55.6l1.7,1.5l2.6,0.9L53.4,55.6"/>
<path id="path4700_5_" sodipodi:cx="43.830647" sodipodi:cy="25.006989" sodipodi:rx="2.6674252" sodipodi:ry="1.4852709" sodipodi:type="arc" class="st14" d="
	M47,24.9c0,0.8-1.1,1.5-2.5,1.5S42,25.7,42,24.9l0,0c0-0.8,1.1-1.5,2.5-1.5C45.8,23.4,47,24.1,47,24.9L47,24.9z"/>
<path id="path4702_5_" sodipodi:cx="44.133762" sodipodi:cy="25.158546" sodipodi:rx="0.606233" sodipodi:ry="1.5762057" sodipodi:type="arc" class="st15" d="
	M45,24.9c0,0.9-0.3,1.7-0.6,1.7s-0.6-0.8-0.6-1.7s0.3-1.7,0.6-1.7C44.8,23.2,45,24,45,24.9z"/>
<path id="path4704_1_" sodipodi:cx="43.830647" sodipodi:cy="25.006989" sodipodi:rx="2.6674252" sodipodi:ry="1.4852709" sodipodi:type="arc" class="st14" d="
	M58.2,24.9c0,0.8-1.1,1.5-2.5,1.5s-2.5-0.7-2.5-1.5l0,0c0-0.8,1.1-1.5,2.5-1.5S58.2,24.1,58.2,24.9L58.2,24.9z"/>
<path id="path4706_1_" sodipodi:cx="44.133762" sodipodi:cy="25.158546" sodipodi:rx="0.606233" sodipodi:ry="1.5762057" sodipodi:type="arc" class="st15" d="
	M56.3,24.9c0,0.9-0.3,1.7-0.6,1.7s-0.6-0.8-0.6-1.7s0.3-1.7,0.6-1.7C56,23.2,56.3,24,56.3,24.9z"/>
</svg>
