<?xml version="1.0" encoding="utf-8"?>
<!-- Generator: Adobe Illustrator 21.0.0, SVG Export Plug-In . SVG Version: 6.00 Build 0)  -->
<svg version="1.1"
	 id="svg3039" inkscape:version="0.48.2 r9819" sodipodi:docname="v-4.svg" xmlns:cc="http://creativecommons.org/ns#" xmlns:dc="http://purl.org/dc/elements/1.1/" xmlns:inkscape="http://www.inkscape.org/namespaces/inkscape" xmlns:rdf="http://www.w3.org/1999/02/22-rdf-syntax-ns#" xmlns:sodipodi="http://sodipodi.sourceforge.net/DTD/sodipodi-0.dtd" xmlns:svg="http://www.w3.org/2000/svg"
	 xmlns="http://www.w3.org/2000/svg" xmlns:xlink="http://www.w3.org/1999/xlink" x="0px" y="0px" viewBox="0 0 100 107"
	 style="enable-background:new 0 0 100 107;" xml:space="preserve">
<style type="text/css">
	.st0{fill:none;stroke:#000000;stroke-width:2;}
	.st1{fill:#FF0000;stroke:#000000;stroke-width:1.4;stroke-linecap:round;}
	.st2{fill:none;stroke:#000000;stroke-width:1.4007;stroke-linecap:round;}
	.st3{fill:none;stroke:#000000;stroke-width:1.5;stroke-linecap:round;}
	.st4{fill:none;stroke:#000000;}
	.st5{fill:none;stroke:#000000;stroke-width:1.5;stroke-linecap:round;stroke-linejoin:round;}
	.st6{fill:none;stroke:#000000;stroke-width:1.5161;}
	.st7{fill:#FF0000;stroke:#000000;stroke-width:2;stroke-linecap:round;}
	.st8{fill:none;stroke:#000000;stroke-width:2;stroke-linecap:round;}
	.st9{fill:none;stroke:#000000;stroke-linecap:round;}
	.st10{fill:#FF0000;stroke:#000000;stroke-width:1.5;stroke-linecap:round;}
	.st11{fill:none;stroke:#000000;stroke-width:1.3;}
	.st12{fill:none;stroke:#000000;stroke-width:1.1507;stroke-linecap:round;stroke-linejoin:round;}
	.st13{fill:none;stroke:#000000;stroke-linejoin:round;}
	.st14{fill:none;stroke:#000000;stroke-linecap:round;stroke-linejoin:round;}
	.st15{fill:none;stroke:#000000;stroke-width:0.8;stroke-linecap:round;stroke-linejoin:round;}
	.st16{fill:none;stroke:#000000;stroke-width:1.7261;stroke-linecap:round;stroke-linejoin:round;}
	.st17{fill:none;stroke:#000000;stroke-width:0.9823;stroke-linecap:round;}
	.st18{fill:none;stroke:#000000;stroke-width:1.6;stroke-linecap:round;}
	.st19{fill:none;stroke:#000000;stroke-width:0.9103;stroke-linecap:round;stroke-linejoin:round;}
	.st20{fill:none;stroke:#000000;stroke-width:1.2;stroke-linecap:round;}
	.st21{fill:none;stroke:#000000;stroke-width:1.3;stroke-linecap:round;}
	.st22{fill:none;stroke:#000000;stroke-width:1.506;stroke-linecap:round;stroke-miterlimit:5.5;}
	.st23{fill:none;stroke:#000000;stroke-width:1.4;}
	.st24{fill:none;stroke:#000000;stroke-width:1.4;stroke-linecap:round;}
	.st25{fill:none;stroke:#000000;stroke-width:1.5;}
	.st26{fill:none;stroke:#000000;stroke-width:1.3;stroke-linejoin:round;}
	.st27{fill:none;stroke:#000000;stroke-width:1.7;stroke-linecap:round;}
</style>
<path id="path3827_12_" inkscape:connector-curvature="0" sodipodi:nodetypes="ccccccccccccccccccccccccccccc" class="st0" d="
	M37,27v13H15v22h10v-7v34H14v11h23V89h26v11h23V89H75V55v7h10V40H63V16H37V27h-6V10h38v17h-6"/>
<path id="path4082_12_" inkscape:connector-curvature="0" sodipodi:nodetypes="cc" class="st17" d="M51.6,27.7c0.8,1.9-5.1,2-4.7,0"
	/>
<path id="path3235_3_" inkscape:connector-curvature="0" sodipodi:nodetypes="cc" class="st18" d="M55,33.2H44"/>
<path id="path4700_2_" sodipodi:cx="43.830647" sodipodi:cy="25.006989" sodipodi:rx="2.6674252" sodipodi:ry="1.4852709" sodipodi:type="arc" class="st19" d="
	M46.2,25c0,1.1-1.1,2-2.5,2s-2.5-0.9-2.5-2l0,0c0-1.1,1.1-2,2.5-2C45.1,23,46.2,23.9,46.2,25L46.2,25z"/>
<path id="path4702_2_" sodipodi:cx="44.133762" sodipodi:cy="25.158546" sodipodi:rx="0.606233" sodipodi:ry="1.5762057" sodipodi:type="arc" class="st15" d="
	M44.3,24.9c0,0.9-0.3,1.7-0.6,1.7s-0.6-0.8-0.6-1.7s0.3-1.7,0.6-1.7C44.1,23.2,44.3,24,44.3,24.9z"/>
<path id="path4850_1_" inkscape:connector-curvature="0" sodipodi:nodetypes="csc" class="st20" d="M31.4,62.7
	c-1.8-1-2.3,4.2,0.2,6.1c2.1,1.5-0.7,1.6,2.8,2.7"/>
<path id="path4852_1_" inkscape:connector-curvature="0" sodipodi:nodetypes="cc" class="st20" d="M28.2,69.4
	c2.2,3.4,3.1,1.6,3.8,3.9"/>
<path id="path4877_1_" sodipodi:cx="43.830647" sodipodi:cy="25.006989" sodipodi:rx="2.6674252" sodipodi:ry="1.4852709" sodipodi:type="arc" class="st19" d="
	M57.4,25c0,1.1-1.1,2-2.5,2s-2.5-0.9-2.5-2l0,0c0-1.1,1.1-2,2.5-2C56.3,23,57.4,23.9,57.4,25L57.4,25z"/>
<path id="path4879_1_" sodipodi:cx="44.133762" sodipodi:cy="25.158546" sodipodi:rx="0.606233" sodipodi:ry="1.5762057" sodipodi:type="arc" class="st15" d="
	M55.5,24.9c0,0.9-0.3,1.7-0.6,1.7s-0.6-0.8-0.6-1.7s0.3-1.7,0.6-1.7C55.3,23.2,55.5,24,55.5,24.9z"/>
<path id="path4881_1_" inkscape:connector-curvature="0" sodipodi:nodetypes="cc" class="st21" d="M46,20.6c-1.4-0.6-4.3-0.6-5.5,0"
	/>
<path id="path4883_1_" inkscape:connector-curvature="0" sodipodi:nodetypes="cc" class="st21" d="M58,20.6c-1.4-0.6-4.3-0.6-5.5,0"
	/>
<path id="path4963" inkscape:connector-curvature="0" sodipodi:nodetypes="ccc" class="st3" d="M7.8,37.4c1.6-0.9,2.7-1.6,3.4-3.3
	c0.9-1.3,1.7,0.4,4.2-1.3"/>
<path id="path4977" inkscape:connector-curvature="0" sodipodi:nodetypes="ccc" class="st22" d="M27.5,4c-3.2,0.1-1.3,1-3.9,1.7
	c0.4,4.1-1.3,1.9-1.1,4"/>
<path id="path4979" inkscape:connector-curvature="0" sodipodi:nodetypes="ccc" class="st3" d="M86.8,104.7
	c-0.8-1.9,1.4-0.1,1.8-1.4c1.7-3.9,1.7,0.8,2.5-3.4"/>
<path id="path4992" inkscape:connector-curvature="0" sodipodi:nodetypes="ccc" class="st20" d="M58.1,79.3c0.1,1.5,1.9,1.4,3,1.3
	c0.8,0.1,2.2-0.4,3.6,0.7"/>
<path id="path4997" inkscape:connector-curvature="0" sodipodi:nodetypes="ccccccccccccccc" class="st23" d="M57.3,56.4
	c1.6,0.4,0.9-0.1,2.4,0.5c1,0.5-1.2,2.4-1.4,3.3c-0.2,1,0.7,5.1,0,5.8c-2.8-0.6-3.8,0.5-4.9,1.2c-2.1,0.9-1.9,0-4.2,0.1
	c-1.8,0.5-1.7,2.5-3.3,3.2c-0.5-0.1,0.1-3.9,0.1-4.4c-0.1-1.4,1.9-1.3,3.2-1.8c0.9,0-0.8-0.7-0.8-1.7c-1.9-1-2.2-2.1-2.7-2.7
	c0.1-2.9,4,0,4.1-1.1c1.3-1,0.2-3.2,0.9-3.4c0.9,0.1,0.6,0,2.8,0.1C54.8,57.2,56.1,56.6,57.3,56.4z"/>
<path id="path5004" inkscape:connector-curvature="0" sodipodi:nodetypes="cc" class="st21" d="M67.6,42.6c1.4-0.2,2.1,0.9,2,2.8"/>
<path id="path5011" inkscape:connector-curvature="0" sodipodi:nodetypes="cc" class="st20" d="M63.6,44c1.2,3,2-0.4,3.1,3.4"/>
<path id="path5016" inkscape:connector-curvature="0" sodipodi:nodetypes="cc" class="st20" d="M67,77.5c1.4,2.7,3.2,1.4,2.8,4"/>
<path id="path5023" inkscape:connector-curvature="0" sodipodi:nodetypes="cc" class="st20" d="M68.8,68.1c-0.8,2.1-0.2,3.6,0,6"/>
<path id="path5029" inkscape:connector-curvature="0" sodipodi:nodetypes="cccc" class="st21" d="M67.5,54.2c-0.1-1,0.6-1.2,0.8-1.8
	c0.2-0.2,0.4-0.7,0.5-0.9c0.1-0.3,1,0,0.8-0.9"/>
<path id="path5033" inkscape:connector-curvature="0" sodipodi:nodetypes="cccc" class="st21" d="M40.4,41.8
	c0.9,0.3,1.3-1.1,1.8-1.3c0.5-0.6,0.7-0.9,1.4-1.2c1.2,0.4,0.8,1.2,1.3,1.1"/>
<path id="path5039" inkscape:connector-curvature="0" sodipodi:nodetypes="cccc" class="st24" d="M36.1,51.8
	c2.4-0.4,1.5,0.3,2.3,0.6c1.2,0.3,0.7,0,1.9,0.4c2.9,0.8,1.1,2.7,3.1,2.8"/>
<path id="path5045" inkscape:connector-curvature="0" sodipodi:nodetypes="ccccccccccscc" class="st25" d="M41.7,46.6
	c0.7-6.8,8.1-1.6,9,2.4c2.6,4.2,9,4.7,11.4-0.2c7.2-0.8-1.5,9,4.1,11.6c2.6,3.7-5.1,4.7-1,8.8c3.8,5-3.8,11.8-7.2,5.7
	c-3.1-6.9-3.9-7.3-5.5,1c1,4.5-2.4,11.1-7.1,6.9c-4.3-3.7,0.4-9.9-2.6-14c-2.3-3.7-11.4,0.3-8.1-6.4c1.1-1.7,5.2-4.7,8.2-5.1
	c5.8-0.8,4-1.3,2.1-3.9C43.5,51.4,40.8,49.4,41.7,46.6z"/>
</svg>
