<?xml version="1.0" encoding="utf-8"?>
<!-- Generator: Adobe Illustrator 21.0.0, SVG Export Plug-In . SVG Version: 6.00 Build 0)  -->
<svg version="1.1"
	 id="svg3039" inkscape:version="0.48.2 r9819" sodipodi:docname="v-4.svg" xmlns:cc="http://creativecommons.org/ns#" xmlns:dc="http://purl.org/dc/elements/1.1/" xmlns:inkscape="http://www.inkscape.org/namespaces/inkscape" xmlns:rdf="http://www.w3.org/1999/02/22-rdf-syntax-ns#" xmlns:sodipodi="http://sodipodi.sourceforge.net/DTD/sodipodi-0.dtd" xmlns:svg="http://www.w3.org/2000/svg"
	 xmlns="http://www.w3.org/2000/svg" xmlns:xlink="http://www.w3.org/1999/xlink" x="0px" y="0px" viewBox="0 0 100 107"
	 style="enable-background:new 0 0 100 107;" xml:space="preserve">
<style type="text/css">
	.st0{fill:none;stroke:#000000;stroke-width:2;}
	.st1{fill:#FF0000;stroke:#000000;stroke-width:1.4;stroke-linecap:round;}
	.st2{fill:none;stroke:#000000;stroke-width:1.4007;stroke-linecap:round;}
	.st3{fill:none;stroke:#000000;stroke-width:1.5;stroke-linecap:round;}
	.st4{fill:none;stroke:#000000;}
	.st5{fill:none;stroke:#000000;stroke-width:1.5;stroke-linecap:round;stroke-linejoin:round;}
	.st6{fill:none;stroke:#000000;stroke-width:1.5161;}
	.st7{fill:#FF0000;stroke:#000000;stroke-width:2;stroke-linecap:round;}
	.st8{fill:none;stroke:#000000;stroke-width:2;stroke-linecap:round;}
	.st9{fill:none;stroke:#000000;stroke-linecap:round;}
	.st10{fill:#FF0000;stroke:#000000;stroke-width:1.5;stroke-linecap:round;}
	.st11{fill:none;stroke:#000000;stroke-width:1.3;}
	.st12{fill:none;stroke:#000000;stroke-width:1.1507;stroke-linecap:round;stroke-linejoin:round;}
	.st13{fill:none;stroke:#000000;stroke-linejoin:round;}
	.st14{fill:none;stroke:#000000;stroke-linecap:round;stroke-linejoin:round;}
	.st15{fill:none;stroke:#000000;stroke-width:0.8;stroke-linecap:round;stroke-linejoin:round;}
	.st16{fill:none;stroke:#000000;stroke-width:1.7261;stroke-linecap:round;stroke-linejoin:round;}
	.st17{fill:none;stroke:#000000;stroke-width:0.9823;stroke-linecap:round;}
	.st18{fill:none;stroke:#000000;stroke-width:1.6;stroke-linecap:round;}
	.st19{fill:none;stroke:#000000;stroke-width:0.9103;stroke-linecap:round;stroke-linejoin:round;}
	.st20{fill:none;stroke:#000000;stroke-width:1.2;stroke-linecap:round;}
	.st21{fill:none;stroke:#000000;stroke-width:1.3;stroke-linecap:round;}
	.st22{fill:none;stroke:#000000;stroke-width:1.506;stroke-linecap:round;stroke-miterlimit:5.5;}
	.st23{fill:none;stroke:#000000;stroke-width:1.4;}
	.st24{fill:none;stroke:#000000;stroke-width:1.4;stroke-linecap:round;}
	.st25{fill:none;stroke:#000000;stroke-width:1.5;}
	.st26{fill:none;stroke:#000000;stroke-width:1.3;stroke-linejoin:round;}
	.st27{fill:none;stroke:#000000;stroke-width:1.7;stroke-linecap:round;}
</style>
<path id="path4099_3_" inkscape:connector-curvature="0" inkscape:original-d="m 49.983116,58.909975 -0.374536,1.201916 -1.789253,0.0579 -1.258023,1.346655 c 0.457744,1.24481 2.547619,1.015649 2.986046,2.625085 L 52.832105,63.92958 52.686592,62.345525 53.200745,60.5988 51.944349,58.903223 c -0.05834,-2.575437 -0.505938,0.188294 -1.961233,0.0068 z" inkscape:path-effect="#path-effect4101" sodipodi:nodetypes="ccccccccccc" class="st13" d="
	M52.1,58.7L51.6,60l-2,0.1l-1.4,1.4l3.3,2.8l3.6-0.2L55,62.3l0.5-1.8l-1.4-1.8L52.1,58.7L52.1,58.7"/>
<path id="path3827_17_" inkscape:connector-curvature="0" sodipodi:nodetypes="ccccccccccccccccccccccccccccc" class="st0" d="
	M37,27v13H15v22h10v-7v34H14v11h23V89h26v11h23V89H75V55v7h10V40H63V16H37V27h-6V10h38v17h-6"/>
<path id="path4082_17_" inkscape:connector-curvature="0" sodipodi:nodetypes="cc" class="st17" d="M51.6,27.7c0.8,1.9-5.1,2-4.7,0"
	/>
<path id="path3235_7_" inkscape:connector-curvature="0" sodipodi:nodetypes="cc" class="st18" d="M55,33.2H44"/>
<path id="path4700_6_" sodipodi:cx="43.830647" sodipodi:cy="25.006989" sodipodi:rx="2.6674252" sodipodi:ry="1.4852709" sodipodi:type="arc" class="st19" d="
	M46.2,25c0,1.1-1.1,2-2.5,2s-2.5-0.9-2.5-2l0,0c0-1.1,1.1-2,2.5-2C45.1,23,46.2,23.9,46.2,25L46.2,25z"/>
<path id="path4702_6_" sodipodi:cx="44.133762" sodipodi:cy="25.158546" sodipodi:rx="0.606233" sodipodi:ry="1.5762057" sodipodi:type="arc" class="st15" d="
	M44.3,24.9c0,0.9-0.3,1.7-0.6,1.7s-0.6-0.8-0.6-1.7s0.3-1.7,0.6-1.7C44.1,23.2,44.3,24,44.3,24.9z"/>
<path id="path4850_4_" inkscape:connector-curvature="0" sodipodi:nodetypes="csc" class="st20" d="M35.2,62.5
	c-1.4-0.8-1.8,3.3,0.2,4.8c1.6,1.2-0.5,1.3,2.2,2.1"/>
<path id="path4852_2_" inkscape:connector-curvature="0" sodipodi:nodetypes="cc" class="st20" d="M32.7,67.7c1.7,2.7,2.4,1.3,3,3.1
	"/>
<path id="path4877_4_" sodipodi:cx="43.830647" sodipodi:cy="25.006989" sodipodi:rx="2.6674252" sodipodi:ry="1.4852709" sodipodi:type="arc" class="st19" d="
	M57.4,25c0,1.1-1.1,2-2.5,2s-2.5-0.9-2.5-2l0,0c0-1.1,1.1-2,2.5-2C56.3,23,57.4,23.9,57.4,25L57.4,25z"/>
<path id="path4879_4_" sodipodi:cx="44.133762" sodipodi:cy="25.158546" sodipodi:rx="0.606233" sodipodi:ry="1.5762057" sodipodi:type="arc" class="st15" d="
	M55.5,24.9c0,0.9-0.3,1.7-0.6,1.7s-0.6-0.8-0.6-1.7s0.3-1.7,0.6-1.7C55.3,23.2,55.5,24,55.5,24.9z"/>
<path id="path4881_4_" inkscape:connector-curvature="0" sodipodi:nodetypes="cc" class="st21" d="M46,20.6c-1.4-0.6-4.3-0.6-5.5,0"
	/>
<path id="path4883_4_" inkscape:connector-curvature="0" sodipodi:nodetypes="cc" class="st21" d="M58,20.6c-1.4-0.6-4.3-0.6-5.5,0"
	/>
<path id="path4992_1_" inkscape:connector-curvature="0" sodipodi:nodetypes="ccc" class="st20" d="M56.1,75.5
	c0.1,1.2,1.5,1.1,2.4,1c0.6,0.1,1.7-0.3,2.8,0.5"/>
<path id="path5004_1_" inkscape:connector-curvature="0" sodipodi:nodetypes="cc" class="st21" d="M63.6,46.7
	c1.1-0.2,1.6,0.7,1.6,2.2"/>
<path id="path5016_1_" inkscape:connector-curvature="0" sodipodi:nodetypes="cc" class="st20" d="M63.1,74.1
	c1.1,2.1,2.5,1.1,2.2,3.1"/>
<path id="path5023_1_" inkscape:connector-curvature="0" sodipodi:nodetypes="cc" class="st20" d="M64.5,66.7
	c-0.6,1.6-0.2,2.8,0,4.7"/>
<path id="path5029_1_" inkscape:connector-curvature="0" sodipodi:nodetypes="cccc" class="st21" d="M63.5,55.8
	c-0.1-0.8,0.5-0.9,0.6-1.4c0.2-0.2,0.3-0.5,0.4-0.7c0.1-0.2,0.8,0,0.6-0.7"/>
<path id="path5033_1_" inkscape:connector-curvature="0" sodipodi:nodetypes="cccc" class="st21" d="M42.3,46.1c0.7,0.2,1-0.9,1.4-1
	c0.4-0.5,0.5-0.7,1.1-0.9c0.9,0.3,0.6,0.9,1,0.9"/>
<path id="path5045_1_" inkscape:connector-curvature="0" sodipodi:nodetypes="ccccccccccscc" class="st25" d="M43.3,49.9
	c0.5-5.3,6.4-1.3,7.1,1.9c2,3.3,7.1,3.7,8.9-0.2c5.6-0.6-1.2,7.1,3.2,9.1c2,2.9-4,3.7-0.8,6.9c3,3.9-3,9.3-5.6,4.5
	c-2.4-5.4-3.1-5.7-4.3,0.8c0.8,3.5-1.9,8.7-5.6,5.4c-3.4-2.9,0.3-7.8-2-11c-1.8-2.9-8.9,0.2-6.4-5c0.9-1.3,4.1-3.7,6.4-4
	c4.5-0.6,3.1-1,1.6-3.1C44.7,53.6,42.6,52.1,43.3,49.9z"/>
</svg>
